<?xml version="1.0" encoding="UTF-8" standalone="no"?>
<!-- Created with Inkscape (http://www.inkscape.org/) -->

<svg
   width="400"
   height="401.1543"
   viewBox="0 0 400 401.1543"
   version="1.1"
   id="svg1"
   xml:space="preserve"
   xmlns="http://www.w3.org/2000/svg"
   xmlns:svg="http://www.w3.org/2000/svg"><defs
     id="defs1" /><g
     id="layer1"
     transform="translate(1.7999999e-6,0.57715189)"><g
       style="fill:none"
       id="g1"
       transform="matrix(2.0123075,0,0,1.5670527,-48.295461,-0.58303532)"><path
         class="purple"
         d="m 94.82,149.44 c 6.53,-1.94 17.13,-4.9 29.26,-5.71 a 102.97,102.97 0 0 1 -7.64,-48.84 c 1.63,-16.51 7.54,-30.38 13.25,-42.1 l 3.47,-7.14 4.48,-9.18 c 2.35,-5 4.08,-9.38 4.9,-13.56 0.81,-4.07 0.81,-7.64 -0.2,-11.11 -1.03,-3.47 -3.07,-7.14 -7.15,-11.21 a 17.02,17.02 0 0 0 -15.8,3.77 l -52.81,47.5 a 17.12,17.12 0 0 0 -5.5,10.2 l -4.5,30.18 a 149.26,149.26 0 0 1 38.24,57.2 z M 54.45,106 l -1.02,3.06 -27.94,62.2 a 17.33,17.33 0 0 0 3.27,18.96 L 72.7,235.38 A 88.7,88.7 0 0 0 81.67,146.88 139.47,139.47 0 0 0 54.45,106 Z"
         id="path1" /><path
         class="purple"
         d="m 82.9,240.79 2.34,0.2 c 8.26,0.2 22.33,1.02 33.64,3.06 9.28,1.73 27.73,6.83 42.82,11.21 11.52,3.47 23.45,-5.8 25.08,-17.73 1.23,-8.67 3.57,-18.46 7.75,-27.53 a 94.81,94.81 0 0 0 -25.9,-40.99 56.48,56.48 0 0 0 -29.56,-13.35 96.55,96.55 0 0 0 -40.99,4.79 98.89,98.89 0 0 1 -15.29,80.34 h 0.1 z"
         id="path2" /><path
         class="purple"
         d="m 201.87,197.76 a 574.87,574.87 0 0 0 19.78,-31.6 8.67,8.67 0 0 0 -0.61,-9.48 185.58,185.58 0 0 1 -21.82,-35.9 c -5.91,-14.16 -6.73,-36.08 -6.83,-46.69 0,-4.07 -1.22,-8.05 -3.77,-11.21 L 154.46,19.55 c 0,1.94 -0.4,3.87 -0.81,5.81 a 76.42,76.42 0 0 1 -5.71,15.9 l -4.7,9.8 -3.36,6.72 a 111.95,111.95 0 0 0 -12.03,38.23 93.9,93.9 0 0 0 8.67,47.92 67.9,67.9 0 0 1 39.56,16.52 99.4,99.4 0 0 1 25.8,37.31 z"
         id="path3" /></g><path
       fill-rule="evenodd"
       clip-rule="evenodd"
       d="m 315.01741,0 h 61.33734 L 242.36639,169.41764 400,400 H 276.55269 L 179.86857,260.16 69.271165,400 H 7.9333328 L 151.25924,218.77764 -1.8e-6,0 H 126.54752 l 87.38093,127.81762 z M 293.4858,359.38686 h 33.9896 L 108.09945,38.490071 H 71.625023 Z"
       fill="#000000"
       id="path1-8"
       style="fill:#ffffff;fill-opacity:1;stroke-width:5.31871" /></g><style
     id="style1">
.purple { fill: #9974F8; }
@media (prefers-color-scheme: dark) { .purple { fill: #A88BFA; } }
</style></svg>
